<?xml version="1.0" encoding="UTF-8" standalone="no"?>
<!DOCTYPE svg PUBLIC "-//W3C//DTD SVG 1.1//EN" "http://www.w3.org/Graphics/SVG/1.1/DTD/svg11.dtd">
<svg width="100%" height="100%" viewBox="0 0 4667 1233" version="1.1" xmlns="http://www.w3.org/2000/svg" xmlns:xlink="http://www.w3.org/1999/xlink" xml:space="preserve" xmlns:serif="http://www.serif.com/" style="fill-rule:evenodd;clip-rule:evenodd;stroke-linejoin:round;stroke-miterlimit:2;">
    <g transform="matrix(15.103872,0,0,13.583544,-3808.419274,-4747.850708)">
        <g transform="matrix(1,0,0,1,296.2998,394.875)">
            <path d="M39.462,-8.363C40.544,-7.463 41.763,-5.562 40.662,-2.363C35.412,3.787 9.238,25.988 2.638,31.688C2.638,26.531 2.731,20.062 2.731,12.469C8.431,11.418 13.513,9.787 17.113,5.137C20.863,0.037 20.544,-9 17.412,-12.713C11.075,-19.125 3.075,-20.48 3.075,-20.48C3.075,-20.48 3.045,-33.148 3.075,-36.312C5.653,-35.628 29.412,-16.463 39.462,-8.363M8.7,-20.25C13.106,-18.281 16.294,-16.594 18.638,-14.906C23.231,-12 24.863,-5.85 23.812,-0.15C21.712,6 16.013,11.25 9.863,13.2C11.7,13.031 12.544,12.656 14.138,12.094C16.575,11.156 18.561,9.9 20.363,8.25C22.294,6.938 23.513,5.344 25.106,3.187C27.45,0.281 26.962,-4.95 26.061,-8.1C23.363,-14.55 15.301,-19.2 8.7,-20.25Z" style="fill:rgb(125,76,155);fill-rule:nonzero;"/>
        </g>
        <g transform="matrix(1,0,0,1,296.2998,394.9771)">
            <path d="M-0.704,-20.373C-4.604,-19.623 -8.505,-18.273 -12.104,-15.573C-16.605,-11.973 -19.755,-5.223 -17.355,1.227C-14.355,7.827 -9.498,11.652 -1.998,12.252L-0.685,12.439L-0.704,31.677C-2.373,31.564 -24.573,10.34 -36.123,-0.01C-36.222,-0.307 -37.36,-1.097 -38.092,-3.292C-37.81,-7.442 -37.592,-6.948 -34.904,-9.385C-29.654,-13.636 -5.439,-33.404 -0.639,-36.404C-0.732,-29.42 -0.704,-20.373 -0.704,-20.373M-18.3,-14.727C-21.9,-11.427 -24.6,-6.777 -23.7,-1.527C-22.5,6.123 -13.688,12.085 -6.487,13.585C-12.487,10.736 -20.7,4.923 -21.15,-2.577C-22.2,-11.727 -13.163,-16.902 -6.862,-20.352C-10.612,-19.452 -15.15,-17.127 -18.3,-14.727Z" style="fill:rgb(125,76,155);fill-rule:nonzero;"/>
        </g>
        <g transform="matrix(1,0,0,1,296.2998,391.458)">
            <path d="M2.7,-14.583L2.7,-7.27L11.138,-7.333C11.138,-7.333 11.126,-3.743 11.075,-3.833C8.075,-3.87 2.638,-3.833 2.638,-3.833C2.638,-3.833 2.7,12.417 2.7,13.355C0.825,13.355 0.669,13.375 -0.737,13.375C-0.737,7.281 -0.675,2.458 -0.675,-3.833L-8.8,-3.833L-8.8,-7.27L-0.737,-7.27C-0.737,-9.755 -0.654,-13.932 -0.654,-14.541L2.7,-14.583Z" style="fill:rgb(125,76,155);fill-rule:nonzero;"/>
        </g>
    </g>
    <g id="画板1" transform="matrix(3.623956,0,0,1.381263,-13310.255289,-3612.297948)">
        <rect x="3672.853" y="2615.214" width="1287.777" height="892.66" style="fill:none;"/>
        <g transform="matrix(0.40748,0,0,1.069088,3202.560949,2548.442884)">
            <g transform="matrix(383.740791,0,0,383.740791,4141.880179,501.807816)">
            </g>
            <text x="2146.428px" y="501.808px" style="font-family:'DFLiHei-Lt-HK-BF', 'DFPLiHei-Lt', sans-serif;font-size:383.741px;">龍<tspan x="2549.356px 2952.284px 3355.212px 3758.139px " y="501.808px 501.808px 501.808px 501.808px ">岡靈糧堂</tspan></text>
        </g>
        <g transform="matrix(0.27853,0,0,0.730766,3450.07291,2544.744858)">
            <g transform="matrix(141.957045,0,0,141.957045,5171.816754,1080.641898)">
            </g>
            <text x="2062.741px" y="1080.642px" style="font-family:'CenturyGothic', 'Century Gothic', sans-serif;font-size:141.957px;fill:rgb(129,98,189);">B<tspan x="2147.095px 2192.632px 2287.729px 2387.54px 2487.628px 2529.769px 2625.559px 2672.968px 2715.109px 2783.52px 2814.778px 2862.187px 2957.284px 2999.425px 3117.673px 3207.087px 3252.624px 3283.882px 3341.827px 3392.771px 3424.029px 3523.84px 3613.253px 3655.394px 3773.642px 3863.056px 3952.192px 3997.729px 4092.411px 4181.824px 4223.965px 4255.223px 4344.637px 4386.778px 4455.189px 4550.979px 4640.393px 4738.748px 4788.721px 4887.076px 4986.887px 5076.301px " y="1080.642px 1080.642px 1080.642px 1080.642px 1080.642px 1080.642px 1080.642px 1080.642px 1080.642px 1080.642px 1080.642px 1080.642px 1080.642px 1080.642px 1080.642px 1080.642px 1080.642px 1080.642px 1080.642px 1080.642px 1080.642px 1080.642px 1080.642px 1080.642px 1080.642px 1080.642px 1080.642px 1080.642px 1080.642px 1080.642px 1080.642px 1080.642px 1080.642px 1080.642px 1080.642px 1080.642px 1080.642px 1080.642px 1080.642px 1080.642px 1080.642px 1080.642px ">read of Life Christian Church in Long-gang</tspan></text>
        </g>
    </g>
</svg>
